<svg width="24" height="20" viewBox="0 0 24 20" fill="none" xmlns="http://www.w3.org/2000/svg">
<path d="M9.55176 1.23146L9.55176 16.236L13.3605 17.3124L13.3605 4.73126C13.3605 4.13842 13.6568 3.7448 14.1321 3.88017C14.7535 4.0339 14.8743 4.58002 14.8743 5.16626L14.8743 10.191C17.2451 11.2145 19.1116 10.1904 19.1116 7.48983C19.1116 4.73019 18.0173 3.50081 14.7973 2.51239C13.5273 2.13517 11.1735 1.49863 9.55176 1.23146Z" fill="white"/>
<path d="M14.3506 15.1159L20.1079 12.9875C20.7592 12.7368 20.8587 12.3961 20.3316 12.217C19.7963 12.0347 18.8407 12.0869 18.1824 12.3324L14.3506 13.7364V11.4962L14.57 11.4209C14.57 11.4209 15.6792 11.0128 17.2392 10.8371C18.7962 10.6598 20.7057 10.8601 22.2065 11.4477C23.8972 12.0055 24.0867 12.8192 23.6589 13.3855C23.225 13.9459 22.1728 14.3513 22.1728 14.3513L14.3506 17.2699" fill="white"/>
<path d="M1.7099 15.3635C-0.0868737 14.8954 -0.386499 13.9062 0.43318 13.3349C1.18927 12.8131 2.47692 12.4203 2.47692 12.4203L7.79976 10.6455V12.6655L3.9729 13.9484C3.29503 14.1751 3.1934 14.4942 3.7394 14.6611C4.29515 14.8348 5.28142 14.7881 5.95967 14.554L7.79976 13.9336V15.7369C7.68115 15.7555 7.54929 15.7743 7.42893 15.7935C5.59431 16.0782 3.63972 15.9613 1.7099 15.3635Z" fill="white"/>
<path fill-rule="evenodd" clip-rule="evenodd" d="M23.7661 17.206C23.6149 17.3337 23.4164 17.4059 23.2027 17.4059C22.989 17.4059 22.784 17.3337 22.6326 17.206C22.4831 17.0759 22.4004 16.9061 22.4004 16.7231C22.4004 16.344 22.7591 16.0377 23.2027 16.0377C23.4164 16.0377 23.6149 16.1075 23.7661 16.238C23.9156 16.3656 24 16.5384 24 16.7231C24 16.9061 23.9156 17.0759 23.7661 17.206ZM22.5352 16.723C22.5352 16.5671 22.6034 16.4242 22.7279 16.3182C22.8555 16.21 23.0258 16.1516 23.2027 16.1516C23.3798 16.1516 23.5458 16.21 23.6704 16.3182C23.796 16.4242 23.8638 16.5671 23.8638 16.723C23.8638 17.0353 23.567 17.2888 23.2027 17.2888C23.0258 17.2888 22.8555 17.231 22.7279 17.1242C22.6034 17.0164 22.5352 16.875 22.5352 16.723ZM23.5678 17.0072C23.5749 17.0249 23.5836 17.0353 23.5959 17.0384L23.6071 17.0438V17.0872H23.4335L23.4303 17.0785L23.4185 17.0522C23.4165 17.0384 23.4142 17.0203 23.4118 16.9899L23.4041 16.8709C23.4021 16.8287 23.386 16.8041 23.3562 16.7878C23.3341 16.7815 23.304 16.7766 23.2591 16.7766H23.0181V17.0872H22.86V16.3243H23.2745C23.3422 16.3243 23.3991 16.3346 23.4427 16.3504C23.5301 16.3855 23.5749 16.449 23.5749 16.5382C23.5749 16.5819 23.5622 16.6229 23.5403 16.6532C23.5213 16.6745 23.4989 16.694 23.4744 16.7131L23.4809 16.717C23.4975 16.7269 23.5139 16.7368 23.5236 16.7513C23.5457 16.7722 23.5557 16.8072 23.5575 16.8522L23.5615 16.9494C23.5622 16.9742 23.5645 16.9936 23.5678 17.0072ZM23.3808 16.6321C23.4064 16.618 23.4185 16.5899 23.4185 16.5469C23.4185 16.5016 23.4001 16.4714 23.3643 16.4563C23.3422 16.449 23.3147 16.4436 23.2779 16.4436H23.0181V16.6579H23.2636C23.3124 16.6579 23.3512 16.6493 23.3808 16.6321Z" fill="white"/>
</svg>
